<svg version="1.1" xmlns="http://www.w3.org/2000/svg" xmlns:xlink="http://www.w3.org/1999/xlink" width="103.251" height="41.047" viewBox="0,0,103.251,41.047"><g transform="translate(-188.3745,-39.4765)"><g stroke="none" stroke-miterlimit="10"><path d="M291.6255,74.06298c0,3.56774 -4.3728,6.46052 -9.76335,6.46052h-83.72543c-5.39169,0 -9.76222,-2.89353 -9.76222,-6.46052v-28.12671c0,-3.56774 4.37053,-6.45977 9.76222,-6.45977h83.72429c5.39395,0 9.76335,2.89203 9.76335,6.45977v28.12671z" fill="#b5d3ff"/><path d="M287.75079,45.93627v28.12596c0,2.14875 -2.64025,3.89658 -5.88978,3.89658h-83.72429c-3.24613,0 -5.88865,-1.74783 -5.88865,-3.89658v-28.12671c0,-2.14875 2.64252,-3.89658 5.88865,-3.89658h83.72429c3.24953,0 5.88978,1.74858 5.88978,3.89733z" fill="#dceaff"/><text transform="translate(216.16001,65.76875) scale(0.5,0.5)" font-size="40" xml:space="preserve" fill="#000000" font-family="Sans Serif" font-weight="normal" text-anchor="start"><tspan x="0" dy="0">是/否</tspan></text></g></g></svg>